solid ASCII
  facet normal -4.886131e-01 -4.903497e-01 7.216747e-01
    outer loop
      vertex   3.708652e+02 4.014780e+01 1.767115e+01
      vertex   3.696113e+02 4.150626e+01 1.774517e+01
      vertex   3.684206e+02 3.985029e+01 1.581385e+01
    endloop
  endfacet
  facet normal -4.886131e-01 -4.903497e-01 7.216747e-01
    outer loop
      vertex   3.684206e+02 3.985029e+01 1.581385e+01
      vertex   3.696113e+02 4.150626e+01 1.774517e+01
      vertex   3.671666e+02 4.120875e+01 1.588787e+01
    endloop
  endfacet
  facet normal 5.892521e-02 -6.473578e-16 9.982624e-01
    outer loop
      vertex   3.696113e+02 4.150626e+01 1.774517e+01
      vertex   3.708652e+02 4.014780e+01 1.767115e+01
      vertex   4.330588e+02 4.922779e+01 1.400000e+01
    endloop
  endfacet
  facet normal 5.892521e-02 4.459085e-12 9.982624e-01
    outer loop
      vertex   4.330588e+02 4.922779e+01 1.400000e+01
      vertex   3.708652e+02 4.014780e+01 1.767115e+01
      vertex   4.500000e+02 4.977845e+01 1.300000e+01
    endloop
  endfacet
  facet normal 5.892521e-02 -2.169548e-14 9.982624e-01
    outer loop
      vertex   4.330588e+02 4.922779e+01 1.400000e+01
      vertex   4.500000e+02 4.977845e+01 1.300000e+01
      vertex   4.500000e+02 5.229690e+01 1.300000e+01
    endloop
  endfacet
  facet normal -1.208081e-01 9.926759e-01 -5.942769e-15
    outer loop
      vertex   3.696113e+02 4.150626e+01 1.774517e+01
      vertex   4.330588e+02 4.922779e+01 1.400000e+01
      vertex   3.671666e+02 4.120875e+01 1.588787e+01
    endloop
  endfacet
  facet normal -1.208081e-01 9.926759e-01 0.000000e+00
    outer loop
      vertex   3.671666e+02 4.120875e+01 1.588787e+01
      vertex   4.330588e+02 4.922779e+01 1.400000e+01
      vertex   3.671666e+02 4.120875e+01 1.400000e+01
    endloop
  endfacet
  facet normal -4.886131e-01 -4.903497e-01 7.216747e-01
    outer loop
      vertex   3.669075e+02 4.443537e+01 1.790477e+01
      vertex   3.656535e+02 4.579383e+01 1.797879e+01
      vertex   3.644628e+02 4.413786e+01 1.604747e+01
    endloop
  endfacet
  facet normal -4.886131e-01 -4.903497e-01 7.216747e-01
    outer loop
      vertex   3.644628e+02 4.413786e+01 1.604747e+01
      vertex   3.656535e+02 4.579383e+01 1.797879e+01
      vertex   3.632089e+02 4.549632e+01 1.612148e+01
    endloop
  endfacet
  facet normal 5.892521e-02 -5.205570e-15 9.982624e-01
    outer loop
      vertex   3.656535e+02 4.579383e+01 1.797879e+01
      vertex   3.669075e+02 4.443537e+01 1.790477e+01
      vertex   4.330588e+02 5.399702e+01 1.400000e+01
    endloop
  endfacet
  facet normal 5.892521e-02 4.515994e-12 9.982624e-01
    outer loop
      vertex   4.330588e+02 5.399702e+01 1.400000e+01
      vertex   3.669075e+02 4.443537e+01 1.790477e+01
      vertex   4.500000e+02 5.454768e+01 1.300000e+01
    endloop
  endfacet
  facet normal 5.892521e-02 -2.302547e-14 9.982624e-01
    outer loop
      vertex   4.330588e+02 5.399702e+01 1.400000e+01
      vertex   4.500000e+02 5.454768e+01 1.300000e+01
      vertex   4.500000e+02 5.706613e+01 1.300000e+01
    endloop
  endfacet
  facet normal -1.208081e-01 9.926759e-01 -1.680764e-14
    outer loop
      vertex   3.656535e+02 4.579383e+01 1.797879e+01
      vertex   4.330588e+02 5.399702e+01 1.400000e+01
      vertex   3.632089e+02 4.549632e+01 1.612148e+01
    endloop
  endfacet
  facet normal -1.208081e-01 9.926759e-01 0.000000e+00
    outer loop
      vertex   3.632089e+02 4.549632e+01 1.612148e+01
      vertex   4.330588e+02 5.399702e+01 1.400000e+01
      vertex   3.632089e+02 4.549632e+01 1.400000e+01
    endloop
  endfacet
  facet normal -4.886131e-01 -4.903497e-01 7.216747e-01
    outer loop
      vertex   3.629497e+02 4.872294e+01 1.813838e+01
      vertex   3.616958e+02 5.008140e+01 1.821240e+01
      vertex   3.605051e+02 4.842543e+01 1.628108e+01
    endloop
  endfacet
  facet normal -4.886131e-01 -4.903497e-01 7.216747e-01
    outer loop
      vertex   3.605051e+02 4.842543e+01 1.628108e+01
      vertex   3.616958e+02 5.008140e+01 1.821240e+01
      vertex   3.592511e+02 4.978389e+01 1.635510e+01
    endloop
  endfacet
  facet normal 5.892521e-02 -6.084423e-16 9.982624e-01
    outer loop
      vertex   3.616958e+02 5.008140e+01 1.821240e+01
      vertex   3.629497e+02 4.872294e+01 1.813838e+01
      vertex   4.330588e+02 5.876625e+01 1.400000e+01
    endloop
  endfacet
  facet normal 5.892521e-02 4.573498e-12 9.982624e-01
    outer loop
      vertex   4.330588e+02 5.876625e+01 1.400000e+01
      vertex   3.629497e+02 4.872294e+01 1.813838e+01
      vertex   4.500000e+02 5.931691e+01 1.300000e+01
    endloop
  endfacet
  facet normal 5.892521e-02 -2.302547e-14 9.982624e-01
    outer loop
      vertex   4.330588e+02 5.876625e+01 1.400000e+01
      vertex   4.500000e+02 5.931691e+01 1.300000e+01
      vertex   4.500000e+02 6.183536e+01 1.300000e+01
    endloop
  endfacet
  facet normal -1.208081e-01 9.926759e-01 -2.468973e-15
    outer loop
      vertex   3.616958e+02 5.008140e+01 1.821240e+01
      vertex   4.330588e+02 5.876625e+01 1.400000e+01
      vertex   3.592511e+02 4.978389e+01 1.635510e+01
    endloop
  endfacet
  facet normal -1.208081e-01 9.926759e-01 0.000000e+00
    outer loop
      vertex   3.592511e+02 4.978389e+01 1.635510e+01
      vertex   4.330588e+02 5.876625e+01 1.400000e+01
      vertex   3.592511e+02 4.978389e+01 1.400000e+01
    endloop
  endfacet
  facet normal -6.859573e-01 0.000000e+00 7.276418e-01
    outer loop
      vertex   3.590423e+02 5.301664e+01 1.636903e+01
      vertex   3.610388e+02 5.325962e+01 1.825118e+01
      vertex   3.590423e+02 5.452771e+01 1.636903e+01
    endloop
  endfacet
  facet normal -6.859573e-01 0.000000e+00 7.276418e-01
    outer loop
      vertex   3.590423e+02 5.452771e+01 1.636903e+01
      vertex   3.610388e+02 5.325962e+01 1.825118e+01
      vertex   3.610388e+02 5.477068e+01 1.825118e+01
    endloop
  endfacet
  facet normal 5.892521e-02 0.000000e+00 9.982624e-01
    outer loop
      vertex   3.610388e+02 5.477068e+01 1.825118e+01
      vertex   3.610388e+02 5.325962e+01 1.825118e+01
      vertex   4.330588e+02 6.353548e+01 1.400000e+01
    endloop
  endfacet
  facet normal 5.892521e-02 4.593664e-12 9.982624e-01
    outer loop
      vertex   4.330588e+02 6.353548e+01 1.400000e+01
      vertex   3.610388e+02 5.325962e+01 1.825118e+01
      vertex   4.500000e+02 6.408614e+01 1.300000e+01
    endloop
  endfacet
  facet normal 5.892521e-02 -2.568546e-14 9.982624e-01
    outer loop
      vertex   4.330588e+02 6.353548e+01 1.400000e+01
      vertex   4.500000e+02 6.408614e+01 1.300000e+01
      vertex   4.500000e+02 6.660459e+01 1.300000e+01
    endloop
  endfacet
  facet normal -1.208081e-01 9.926759e-01 -1.150754e-14
    outer loop
      vertex   3.610388e+02 5.477068e+01 1.825118e+01
      vertex   4.330588e+02 6.353548e+01 1.400000e+01
      vertex   3.590423e+02 5.452771e+01 1.636903e+01
    endloop
  endfacet
  facet normal -1.208081e-01 9.926759e-01 0.000000e+00
    outer loop
      vertex   3.590423e+02 5.452771e+01 1.636903e+01
      vertex   4.330588e+02 6.353548e+01 1.400000e+01
      vertex   3.590423e+02 5.452771e+01 1.400000e+01
    endloop
  endfacet
  facet normal -6.859573e-01 0.000000e+00 7.276418e-01
    outer loop
      vertex   3.590423e+02 5.778587e+01 1.636903e+01
      vertex   3.610388e+02 5.802885e+01 1.825118e+01
      vertex   3.590423e+02 5.929694e+01 1.636903e+01
    endloop
  endfacet
  facet normal -6.859573e-01 0.000000e+00 7.276418e-01
    outer loop
      vertex   3.590423e+02 5.929694e+01 1.636903e+01
      vertex   3.610388e+02 5.802885e+01 1.825118e+01
      vertex   3.610388e+02 5.953991e+01 1.825118e+01
    endloop
  endfacet
  facet normal 5.892521e-02 0.000000e+00 9.982624e-01
    outer loop
      vertex   3.610388e+02 5.953991e+01 1.825118e+01
      vertex   3.610388e+02 5.802885e+01 1.825118e+01
      vertex   4.330588e+02 6.830471e+01 1.400000e+01
    endloop
  endfacet
  facet normal 5.892521e-02 4.593242e-12 9.982624e-01
    outer loop
      vertex   4.330588e+02 6.830471e+01 1.400000e+01
      vertex   3.610388e+02 5.802885e+01 1.825118e+01
      vertex   4.500000e+02 6.885538e+01 1.300000e+01
    endloop
  endfacet
  facet normal 5.892521e-02 -2.834544e-14 9.982624e-01
    outer loop
      vertex   4.330588e+02 6.830471e+01 1.400000e+01
      vertex   4.500000e+02 6.885538e+01 1.300000e+01
      vertex   4.500000e+02 7.137382e+01 1.300000e+01
    endloop
  endfacet
  facet normal -1.208081e-01 9.926759e-01 -1.503325e-14
    outer loop
      vertex   3.610388e+02 5.953991e+01 1.825118e+01
      vertex   4.330588e+02 6.830471e+01 1.400000e+01
      vertex   3.590423e+02 5.929694e+01 1.636903e+01
    endloop
  endfacet
  facet normal -1.208081e-01 9.926759e-01 0.000000e+00
    outer loop
      vertex   3.590423e+02 5.929694e+01 1.636903e+01
      vertex   4.330588e+02 6.830471e+01 1.400000e+01
      vertex   3.590423e+02 5.929694e+01 1.400000e+01
    endloop
  endfacet
  facet normal -6.859573e-01 0.000000e+00 7.276418e-01
    outer loop
      vertex   3.590423e+02 6.255510e+01 1.636903e+01
      vertex   3.610388e+02 6.279808e+01 1.825118e+01
      vertex   3.590423e+02 6.406617e+01 1.636903e+01
    endloop
  endfacet
  facet normal -6.859573e-01 -1.713757e-15 7.276418e-01
    outer loop
      vertex   3.590423e+02 6.406617e+01 1.636903e+01
      vertex   3.610388e+02 6.279808e+01 1.825118e+01
      vertex   3.610388e+02 6.430915e+01 1.825118e+01
    endloop
  endfacet
  facet normal 5.892521e-02 -2.347043e-15 9.982624e-01
    outer loop
      vertex   3.610388e+02 6.430915e+01 1.825118e+01
      vertex   3.610388e+02 6.279808e+01 1.825118e+01
      vertex   4.330588e+02 7.307394e+01 1.400000e+01
    endloop
  endfacet
  facet normal 5.892521e-02 4.593242e-12 9.982624e-01
    outer loop
      vertex   4.330588e+02 7.307394e+01 1.400000e+01
      vertex   3.610388e+02 6.279808e+01 1.825118e+01
      vertex   4.500000e+02 7.362461e+01 1.300000e+01
    endloop
  endfacet
  facet normal 5.892521e-02 -2.834544e-14 9.982624e-01
    outer loop
      vertex   4.330588e+02 7.307394e+01 1.400000e+01
      vertex   4.500000e+02 7.362461e+01 1.300000e+01
      vertex   4.500000e+02 7.614305e+01 1.300000e+01
    endloop
  endfacet
  facet normal -1.208081e-01 9.926759e-01 -1.160547e-14
    outer loop
      vertex   3.610388e+02 6.430915e+01 1.825118e+01
      vertex   4.330588e+02 7.307394e+01 1.400000e+01
      vertex   3.590423e+02 6.406617e+01 1.636903e+01
    endloop
  endfacet
  facet normal -1.208081e-01 9.926759e-01 0.000000e+00
    outer loop
      vertex   3.590423e+02 6.406617e+01 1.636903e+01
      vertex   4.330588e+02 7.307394e+01 1.400000e+01
      vertex   3.590423e+02 6.406617e+01 1.400000e+01
    endloop
  endfacet
  facet normal -6.859573e-01 0.000000e+00 7.276418e-01
    outer loop
      vertex   3.590423e+02 6.732433e+01 1.636903e+01
      vertex   3.610388e+02 6.756731e+01 1.825118e+01
      vertex   3.590423e+02 6.883540e+01 1.636903e+01
    endloop
  endfacet
  facet normal -6.859573e-01 0.000000e+00 7.276418e-01
    outer loop
      vertex   3.590423e+02 6.883540e+01 1.636903e+01
      vertex   3.610388e+02 6.756731e+01 1.825118e+01
      vertex   3.610388e+02 6.907838e+01 1.825118e+01
    endloop
  endfacet
  facet normal 5.892521e-02 0.000000e+00 9.982624e-01
    outer loop
      vertex   3.610388e+02 6.907838e+01 1.825118e+01
      vertex   3.610388e+02 6.756731e+01 1.825118e+01
      vertex   4.330588e+02 7.784317e+01 1.400000e+01
    endloop
  endfacet
  facet normal 5.892521e-02 4.593664e-12 9.982624e-01
    outer loop
      vertex   4.330588e+02 7.784317e+01 1.400000e+01
      vertex   3.610388e+02 6.756731e+01 1.825118e+01
      vertex   4.500000e+02 7.839384e+01 1.300000e+01
    endloop
  endfacet
  facet normal 5.892521e-02 -2.967543e-14 9.982624e-01
    outer loop
      vertex   4.330588e+02 7.784317e+01 1.400000e+01
      vertex   4.500000e+02 7.839384e+01 1.300000e+01
      vertex   4.500000e+02 8.091228e+01 1.300000e+01
    endloop
  endfacet
  facet normal -1.208081e-01 9.926759e-01 -1.150754e-14
    outer loop
      vertex   3.610388e+02 6.907838e+01 1.825118e+01
      vertex   4.330588e+02 7.784317e+01 1.400000e+01
      vertex   3.590423e+02 6.883540e+01 1.636903e+01
    endloop
  endfacet
  facet normal -1.208081e-01 9.926759e-01 0.000000e+00
    outer loop
      vertex   3.590423e+02 6.883540e+01 1.636903e+01
      vertex   4.330588e+02 7.784317e+01 1.400000e+01
      vertex   3.590423e+02 6.883540e+01 1.400000e+01
    endloop
  endfacet
  facet normal -6.859573e-01 0.000000e+00 7.276418e-01
    outer loop
      vertex   3.590423e+02 7.209356e+01 1.636903e+01
      vertex   3.610388e+02 7.233654e+01 1.825118e+01
      vertex   3.590423e+02 7.360463e+01 1.636903e+01
    endloop
  endfacet
  facet normal -6.859573e-01 2.409971e-14 7.276418e-01
    outer loop
      vertex   3.590423e+02 7.360463e+01 1.636903e+01
      vertex   3.610388e+02 7.233654e+01 1.825118e+01
      vertex   3.610388e+02 7.384761e+01 1.825118e+01
    endloop
  endfacet
  facet normal 5.892521e-02 -4.563696e-15 9.982624e-01
    outer loop
      vertex   3.610388e+02 7.384761e+01 1.825118e+01
      vertex   3.610388e+02 7.233654e+01 1.825118e+01
      vertex   4.330588e+02 8.261240e+01 1.400000e+01
    endloop
  endfacet
  facet normal 5.892521e-02 4.593242e-12 9.982624e-01
    outer loop
      vertex   4.330588e+02 8.261240e+01 1.400000e+01
      vertex   3.610388e+02 7.233654e+01 1.825118e+01
      vertex   4.500000e+02 8.316307e+01 1.300000e+01
    endloop
  endfacet
  facet normal 5.892521e-02 -3.100542e-14 9.982624e-01
    outer loop
      vertex   4.330588e+02 8.261240e+01 1.400000e+01
      vertex   4.500000e+02 8.316307e+01 1.300000e+01
      vertex   4.500000e+02 8.568151e+01 1.300000e+01
    endloop
  endfacet
  facet normal -1.208081e-01 9.926759e-01 -1.150754e-14
    outer loop
      vertex   3.610388e+02 7.384761e+01 1.825118e+01
      vertex   4.330588e+02 8.261240e+01 1.400000e+01
      vertex   3.590423e+02 7.360463e+01 1.636903e+01
    endloop
  endfacet
  facet normal -1.208081e-01 9.926759e-01 0.000000e+00
    outer loop
      vertex   3.590423e+02 7.360463e+01 1.636903e+01
      vertex   4.330588e+02 8.261240e+01 1.400000e+01
      vertex   3.590423e+02 7.360463e+01 1.400000e+01
    endloop
  endfacet
  facet normal -6.859573e-01 0.000000e+00 7.276418e-01
    outer loop
      vertex   3.590423e+02 7.686279e+01 1.636903e+01
      vertex   3.610388e+02 7.710577e+01 1.825118e+01
      vertex   3.590423e+02 7.823905e+01 1.636903e+01
    endloop
  endfacet
  facet normal -6.859573e-01 2.230765e-13 7.276418e-01
    outer loop
      vertex   3.590423e+02 7.823905e+01 1.636903e+01
      vertex   3.610388e+02 7.710577e+01 1.825118e+01
      vertex   3.591825e+02 7.839092e+01 1.650119e+01
    endloop
  endfacet
  facet normal -6.859573e-01 0.000000e+00 7.276418e-01
    outer loop
      vertex   3.591825e+02 7.839092e+01 1.650119e+01
      vertex   3.610388e+02 7.710577e+01 1.825118e+01
      vertex   3.610388e+02 7.861684e+01 1.825118e+01
    endloop
  endfacet
  facet normal 1.208081e-01 -9.926759e-01 7.730395e-16
    outer loop
      vertex   3.610388e+02 7.710577e+01 1.825118e+01
      vertex   3.590423e+02 7.686279e+01 1.636903e+01
      vertex   4.500000e+02 8.793230e+01 1.300000e+01
    endloop
  endfacet
  facet normal 1.208081e-01 -9.926759e-01 0.000000e+00
    outer loop
      vertex   4.500000e+02 8.793230e+01 1.300000e+01
      vertex   3.590423e+02 7.686279e+01 1.636903e+01
      vertex   3.590423e+02 7.686279e+01 1.300000e+01
    endloop
  endfacet
  facet normal 5.892521e-02 0.000000e+00 9.982624e-01
    outer loop
      vertex   3.610388e+02 7.861684e+01 1.825118e+01
      vertex   3.610388e+02 7.710577e+01 1.825118e+01
      vertex   4.330588e+02 8.738163e+01 1.400000e+01
    endloop
  endfacet
  facet normal 5.892521e-02 4.593242e-12 9.982624e-01
    outer loop
      vertex   4.330588e+02 8.738163e+01 1.400000e+01
      vertex   3.610388e+02 7.710577e+01 1.825118e+01
      vertex   4.500000e+02 8.793230e+01 1.300000e+01
    endloop
  endfacet
  facet normal 5.892521e-02 -3.100542e-14 9.982624e-01
    outer loop
      vertex   4.330588e+02 8.738163e+01 1.400000e+01
      vertex   4.500000e+02 8.793230e+01 1.300000e+01
      vertex   4.500000e+02 9.045074e+01 1.300000e+01
    endloop
  endfacet
  facet normal -1.208081e-01 9.926759e-01 -1.719554e-14
    outer loop
      vertex   3.610388e+02 7.861684e+01 1.825118e+01
      vertex   4.330588e+02 8.738163e+01 1.400000e+01
      vertex   3.591825e+02 7.839092e+01 1.650119e+01
    endloop
  endfacet
  facet normal -1.208081e-01 9.926759e-01 0.000000e+00
    outer loop
      vertex   3.591825e+02 7.839092e+01 1.650119e+01
      vertex   4.330588e+02 8.738163e+01 1.400000e+01
      vertex   3.591825e+02 7.839092e+01 1.400000e+01
    endloop
  endfacet
  facet normal -4.886131e-01 4.903497e-01 7.216747e-01
    outer loop
      vertex   3.625706e+02 8.206142e+01 1.615916e+01
      vertex   3.656340e+02 8.243424e+01 1.797994e+01
      vertex   3.641420e+02 8.376372e+01 1.606641e+01
    endloop
  endfacet
  facet normal -4.886131e-01 4.903497e-01 7.216747e-01
    outer loop
      vertex   3.641420e+02 8.376372e+01 1.606641e+01
      vertex   3.656340e+02 8.243424e+01 1.797994e+01
      vertex   3.672054e+02 8.413654e+01 1.788718e+01
    endloop
  endfacet
  facet normal 5.892521e-02 -6.112330e-15 9.982624e-01
    outer loop
      vertex   3.672054e+02 8.413654e+01 1.788718e+01
      vertex   3.656340e+02 8.243424e+01 1.797994e+01
      vertex   4.330588e+02 9.215086e+01 1.400000e+01
    endloop
  endfacet
  facet normal 5.892521e-02 4.536072e-12 9.982624e-01
    outer loop
      vertex   4.330588e+02 9.215086e+01 1.400000e+01
      vertex   3.656340e+02 8.243424e+01 1.797994e+01
      vertex   4.500000e+02 9.270153e+01 1.300000e+01
    endloop
  endfacet
  facet normal 5.892521e-02 -3.100542e-14 9.982624e-01
    outer loop
      vertex   4.330588e+02 9.215086e+01 1.400000e+01
      vertex   4.500000e+02 9.270153e+01 1.300000e+01
      vertex   4.500000e+02 9.521997e+01 1.300000e+01
    endloop
  endfacet
  facet normal -1.208081e-01 9.926759e-01 -2.501630e-14
    outer loop
      vertex   3.672054e+02 8.413654e+01 1.788718e+01
      vertex   4.330588e+02 9.215086e+01 1.400000e+01
      vertex   3.641420e+02 8.376372e+01 1.606641e+01
    endloop
  endfacet
  facet normal -1.208081e-01 9.926759e-01 0.000000e+00
    outer loop
      vertex   3.641420e+02 8.376372e+01 1.606641e+01
      vertex   4.330588e+02 9.215086e+01 1.400000e+01
      vertex   3.641420e+02 8.376372e+01 1.400000e+01
    endloop
  endfacet
  facet normal -4.886131e-01 4.903497e-01 7.216747e-01
    outer loop
      vertex   3.675301e+02 8.743422e+01 1.586641e+01
      vertex   3.705935e+02 8.780704e+01 1.768719e+01
      vertex   3.691015e+02 8.913652e+01 1.577366e+01
    endloop
  endfacet
  facet normal -4.886131e-01 4.903497e-01 7.216747e-01
    outer loop
      vertex   3.691015e+02 8.913652e+01 1.577366e+01
      vertex   3.705935e+02 8.780704e+01 1.768719e+01
      vertex   3.721649e+02 8.950934e+01 1.759443e+01
    endloop
  endfacet
  facet normal 1.208081e-01 -9.926759e-01 2.878076e-14
    outer loop
      vertex   3.705935e+02 8.780704e+01 1.768719e+01
      vertex   3.675301e+02 8.743422e+01 1.586641e+01
      vertex   4.146101e+02 9.316383e+01 1.508898e+01
    endloop
  endfacet
  facet normal 1.208081e-01 -9.926759e-01 0.000000e+00
    outer loop
      vertex   4.146101e+02 9.316383e+01 1.508898e+01
      vertex   3.675301e+02 8.743422e+01 1.586641e+01
      vertex   3.675301e+02 8.743422e+01 1.300000e+01
    endloop
  endfacet
  facet normal 1.208081e-01 -9.926759e-01 0.000000e+00
    outer loop
      vertex   4.146101e+02 9.316383e+01 1.508898e+01
      vertex   3.675301e+02 8.743422e+01 1.300000e+01
      vertex   4.146101e+02 9.316383e+01 1.300000e+01
    endloop
  endfacet
  facet normal 5.892521e-02 8.861869e-16 9.982624e-01
    outer loop
      vertex   3.721649e+02 8.950934e+01 1.759443e+01
      vertex   3.705935e+02 8.780704e+01 1.768719e+01
      vertex   3.905387e+02 9.174542e+01 1.650987e+01
    endloop
  endfacet
  facet normal 5.892521e-02 3.199306e-16 9.982624e-01
    outer loop
      vertex   3.905387e+02 9.174542e+01 1.650987e+01
      vertex   3.705935e+02 8.780704e+01 1.768719e+01
      vertex   4.146101e+02 9.316383e+01 1.508898e+01
    endloop
  endfacet
  facet normal -8.542423e-02 7.019278e-01 7.071068e-01
    outer loop
      vertex   4.015511e+02 3.585486e+01 1.400000e+01
      vertex   4.330588e+02 3.968933e+01 1.400000e+01
      vertex   3.959740e+02 3.618350e+01 1.300000e+01
    endloop
  endfacet
  facet normal -8.542423e-02 7.019278e-01 7.071068e-01
    outer loop
      vertex   3.959740e+02 3.618350e+01 1.300000e+01
      vertex   4.330588e+02 3.968933e+01 1.400000e+01
      vertex   4.500000e+02 4.275844e+01 1.300000e+01
    endloop
  endfacet
  facet normal -1.208081e-01 9.926759e-01 0.000000e+00
    outer loop
      vertex   4.330588e+02 3.968933e+01 1.400000e+01
      vertex   4.015511e+02 3.585486e+01 1.400000e+01
      vertex   4.015511e+02 3.585486e+01 1.585983e+01
    endloop
  endfacet
  facet normal -8.542423e-02 7.019278e-01 7.071068e-01
    outer loop
      vertex   3.702476e+02 3.769942e+01 1.312153e+01
      vertex   3.751470e+02 3.741073e+01 1.400000e+01
      vertex   3.702884e+02 3.782681e+01 1.300000e+01
    endloop
  endfacet
  facet normal -8.542423e-02 7.019278e-01 7.071068e-01
    outer loop
      vertex   3.702884e+02 3.782681e+01 1.300000e+01
      vertex   3.751470e+02 3.741073e+01 1.400000e+01
      vertex   4.330588e+02 4.445856e+01 1.400000e+01
    endloop
  endfacet
  facet normal -8.542423e-02 7.019278e-01 7.071068e-01
    outer loop
      vertex   3.702884e+02 3.782681e+01 1.300000e+01
      vertex   4.330588e+02 4.445856e+01 1.400000e+01
      vertex   4.500000e+02 4.752767e+01 1.300000e+01
    endloop
  endfacet
  facet normal -1.208081e-01 9.926759e-01 0.000000e+00
    outer loop
      vertex   4.330588e+02 4.445856e+01 1.400000e+01
      vertex   3.751470e+02 3.741073e+01 1.400000e+01
      vertex   3.751470e+02 3.741073e+01 1.741840e+01
    endloop
  endfacet
  facet normal -8.542423e-02 7.019278e-01 7.071068e-01
    outer loop
      vertex   3.671666e+02 4.120875e+01 1.400000e+01
      vertex   4.330588e+02 4.922779e+01 1.400000e+01
      vertex   3.663307e+02 4.211439e+01 1.300000e+01
    endloop
  endfacet
  facet normal -8.542423e-02 7.019278e-01 7.071068e-01
    outer loop
      vertex   3.663307e+02 4.211439e+01 1.300000e+01
      vertex   4.330588e+02 4.922779e+01 1.400000e+01
      vertex   4.500000e+02 5.229690e+01 1.300000e+01
    endloop
  endfacet
  facet normal -8.542423e-02 7.019278e-01 7.071068e-01
    outer loop
      vertex   3.632089e+02 4.549632e+01 1.400000e+01
      vertex   4.330588e+02 5.399702e+01 1.400000e+01
      vertex   3.623729e+02 4.640196e+01 1.300000e+01
    endloop
  endfacet
  facet normal -8.542423e-02 7.019278e-01 7.071068e-01
    outer loop
      vertex   3.623729e+02 4.640196e+01 1.300000e+01
      vertex   4.330588e+02 5.399702e+01 1.400000e+01
      vertex   4.500000e+02 5.706613e+01 1.300000e+01
    endloop
  endfacet
  facet normal -8.542423e-02 7.019278e-01 7.071068e-01
    outer loop
      vertex   3.587099e+02 5.037022e+01 1.335258e+01
      vertex   3.592511e+02 4.978389e+01 1.400000e+01
      vertex   3.590423e+02 5.076586e+01 1.300000e+01
    endloop
  endfacet
  facet normal -8.542423e-02 7.019278e-01 7.071068e-01
    outer loop
      vertex   3.590423e+02 5.076586e+01 1.300000e+01
      vertex   3.592511e+02 4.978389e+01 1.400000e+01
      vertex   4.330588e+02 5.876625e+01 1.400000e+01
    endloop
  endfacet
  facet normal -8.542423e-02 7.019278e-01 7.071068e-01
    outer loop
      vertex   3.590423e+02 5.076586e+01 1.300000e+01
      vertex   4.330588e+02 5.876625e+01 1.400000e+01
      vertex   4.500000e+02 6.183536e+01 1.300000e+01
    endloop
  endfacet
  facet normal -8.542423e-02 7.019278e-01 7.071068e-01
    outer loop
      vertex   3.590423e+02 5.452771e+01 1.400000e+01
      vertex   4.330588e+02 6.353548e+01 1.400000e+01
      vertex   3.590423e+02 5.553509e+01 1.300000e+01
    endloop
  endfacet
  facet normal -8.542423e-02 7.019278e-01 7.071068e-01
    outer loop
      vertex   3.590423e+02 5.553509e+01 1.300000e+01
      vertex   4.330588e+02 6.353548e+01 1.400000e+01
      vertex   4.500000e+02 6.660459e+01 1.300000e+01
    endloop
  endfacet
  facet normal -8.542423e-02 7.019278e-01 7.071068e-01
    outer loop
      vertex   3.590423e+02 5.929694e+01 1.400000e+01
      vertex   4.330588e+02 6.830471e+01 1.400000e+01
      vertex   3.590423e+02 6.030432e+01 1.300000e+01
    endloop
  endfacet
  facet normal -8.542423e-02 7.019278e-01 7.071068e-01
    outer loop
      vertex   3.590423e+02 6.030432e+01 1.300000e+01
      vertex   4.330588e+02 6.830471e+01 1.400000e+01
      vertex   4.500000e+02 7.137382e+01 1.300000e+01
    endloop
  endfacet
  facet normal -8.542423e-02 7.019278e-01 7.071068e-01
    outer loop
      vertex   3.590423e+02 6.406617e+01 1.400000e+01
      vertex   4.330588e+02 7.307394e+01 1.400000e+01
      vertex   3.590423e+02 6.507355e+01 1.300000e+01
    endloop
  endfacet
  facet normal -8.542423e-02 7.019278e-01 7.071068e-01
    outer loop
      vertex   3.590423e+02 6.507355e+01 1.300000e+01
      vertex   4.330588e+02 7.307394e+01 1.400000e+01
      vertex   4.500000e+02 7.614305e+01 1.300000e+01
    endloop
  endfacet
  facet normal -8.542423e-02 7.019278e-01 7.071068e-01
    outer loop
      vertex   3.590423e+02 6.883540e+01 1.400000e+01
      vertex   4.330588e+02 7.784317e+01 1.400000e+01
      vertex   3.590423e+02 6.984278e+01 1.300000e+01
    endloop
  endfacet
  facet normal -8.542423e-02 7.019278e-01 7.071068e-01
    outer loop
      vertex   3.590423e+02 6.984278e+01 1.300000e+01
      vertex   4.330588e+02 7.784317e+01 1.400000e+01
      vertex   4.500000e+02 8.091228e+01 1.300000e+01
    endloop
  endfacet
  facet normal -8.542423e-02 7.019278e-01 7.071068e-01
    outer loop
      vertex   3.590423e+02 7.360463e+01 1.400000e+01
      vertex   4.330588e+02 8.261240e+01 1.400000e+01
      vertex   3.590423e+02 7.461201e+01 1.300000e+01
    endloop
  endfacet
  facet normal -8.542423e-02 7.019278e-01 7.071068e-01
    outer loop
      vertex   3.590423e+02 7.461201e+01 1.300000e+01
      vertex   4.330588e+02 8.261240e+01 1.400000e+01
      vertex   4.500000e+02 8.568151e+01 1.300000e+01
    endloop
  endfacet
  facet normal -8.542423e-02 7.019278e-01 7.071068e-01
    outer loop
      vertex   3.591825e+02 7.839092e+01 1.400000e+01
      vertex   4.330588e+02 8.738163e+01 1.400000e+01
      vertex   3.602300e+02 7.952579e+01 1.300000e+01
    endloop
  endfacet
  facet normal -8.542423e-02 7.019278e-01 7.071068e-01
    outer loop
      vertex   3.602300e+02 7.952579e+01 1.300000e+01
      vertex   4.330588e+02 8.738163e+01 1.400000e+01
      vertex   4.500000e+02 9.045074e+01 1.300000e+01
    endloop
  endfacet
  facet normal -8.542423e-02 7.019278e-01 7.071068e-01
    outer loop
      vertex   3.641420e+02 8.376372e+01 1.400000e+01
      vertex   4.330588e+02 9.215086e+01 1.400000e+01
      vertex   3.651896e+02 8.489859e+01 1.300000e+01
    endloop
  endfacet
  facet normal -8.542423e-02 7.019278e-01 7.071068e-01
    outer loop
      vertex   3.651896e+02 8.489859e+01 1.300000e+01
      vertex   4.330588e+02 9.215086e+01 1.400000e+01
      vertex   4.500000e+02 9.521997e+01 1.300000e+01
    endloop
  endfacet
  facet normal 5.892521e-02 -2.167103e-14 9.982624e-01
    outer loop
      vertex   4.500000e+02 4.752767e+01 1.300000e+01
      vertex   4.330588e+02 4.445856e+01 1.400000e+01
      vertex   4.500000e+02 4.500922e+01 1.300000e+01
    endloop
  endfacet
  facet normal 5.892521e-02 4.228600e-12 9.982624e-01
    outer loop
      vertex   4.500000e+02 4.500922e+01 1.300000e+01
      vertex   4.330588e+02 4.445856e+01 1.400000e+01
      vertex   3.835128e+02 3.691777e+01 1.692459e+01
    endloop
  endfacet
  facet normal 5.892521e-02 -8.916141e-16 9.982624e-01
    outer loop
      vertex   3.835128e+02 3.691777e+01 1.692459e+01
      vertex   4.330588e+02 4.445856e+01 1.400000e+01
      vertex   3.751470e+02 3.741073e+01 1.741840e+01
    endloop
  endfacet
  facet normal 5.892521e-02 -2.034104e-14 9.982624e-01
    outer loop
      vertex   4.500000e+02 4.275844e+01 1.300000e+01
      vertex   4.330588e+02 3.968933e+01 1.400000e+01
      vertex   4.500000e+02 4.023999e+01 1.300000e+01
    endloop
  endfacet
  facet normal 5.892521e-02 3.276709e-12 9.982624e-01
    outer loop
      vertex   4.500000e+02 4.023999e+01 1.300000e+01
      vertex   4.330588e+02 3.968933e+01 1.400000e+01
      vertex   4.099169e+02 3.536190e+01 1.536601e+01
    endloop
  endfacet
  facet normal 5.892521e-02 -2.979646e-16 9.982624e-01
    outer loop
      vertex   4.099169e+02 3.536190e+01 1.536601e+01
      vertex   4.330588e+02 3.968933e+01 1.400000e+01
      vertex   4.015511e+02 3.585486e+01 1.585983e+01
    endloop
  endfacet
  facet normal 5.892521e-02 0.000000e+00 9.982624e-01
    outer loop
      vertex   4.500000e+02 3.698183e+01 1.300000e+01
      vertex   4.279552e+02 3.429899e+01 1.430125e+01
      vertex   4.500000e+02 3.547076e+01 1.300000e+01
    endloop
  endfacet
  facet normal 5.892521e-02 -3.470213e-12 9.982624e-01
    outer loop
      vertex   4.500000e+02 3.547076e+01 1.300000e+01
      vertex   4.279552e+02 3.429899e+01 1.430125e+01
      vertex   4.363210e+02 3.380604e+01 1.380744e+01
    endloop
  endfacet
  facet normal 1.208081e-01 -9.926759e-01 0.000000e+00
    outer loop
      vertex   4.500000e+02 3.547076e+01 1.300000e+01
      vertex   4.363210e+02 3.380604e+01 1.380744e+01
      vertex   4.363210e+02 3.380604e+01 1.300000e+01
    endloop
  endfacet
  facet normal 1.208081e-01 -9.926759e-01 0.000000e+00
    outer loop
      vertex   4.500000e+02 4.023999e+01 1.300000e+01
      vertex   4.099169e+02 3.536190e+01 1.536601e+01
      vertex   4.099169e+02 3.536190e+01 1.300000e+01
    endloop
  endfacet
  facet normal 1.208081e-01 -9.926759e-01 0.000000e+00
    outer loop
      vertex   4.500000e+02 4.500922e+01 1.300000e+01
      vertex   3.835128e+02 3.691777e+01 1.692459e+01
      vertex   3.835128e+02 3.691777e+01 1.300000e+01
    endloop
  endfacet
  facet normal 1.208081e-01 -9.926759e-01 2.003850e-14
    outer loop
      vertex   3.708652e+02 4.014780e+01 1.767115e+01
      vertex   3.684206e+02 3.985029e+01 1.581385e+01
      vertex   4.500000e+02 4.977845e+01 1.300000e+01
    endloop
  endfacet
  facet normal 1.208081e-01 -9.926759e-01 0.000000e+00
    outer loop
      vertex   4.500000e+02 4.977845e+01 1.300000e+01
      vertex   3.684206e+02 3.985029e+01 1.581385e+01
      vertex   3.684206e+02 3.985029e+01 1.300000e+01
    endloop
  endfacet
  facet normal 1.208081e-01 -9.926759e-01 2.349458e-14
    outer loop
      vertex   3.669075e+02 4.443537e+01 1.790477e+01
      vertex   3.644628e+02 4.413786e+01 1.604747e+01
      vertex   4.500000e+02 5.454768e+01 1.300000e+01
    endloop
  endfacet
  facet normal 1.208081e-01 -9.926759e-01 0.000000e+00
    outer loop
      vertex   4.500000e+02 5.454768e+01 1.300000e+01
      vertex   3.644628e+02 4.413786e+01 1.604747e+01
      vertex   3.644628e+02 4.413786e+01 1.300000e+01
    endloop
  endfacet
  facet normal 1.208081e-01 -9.926759e-01 -1.524104e-14
    outer loop
      vertex   3.629497e+02 4.872294e+01 1.813838e+01
      vertex   3.605051e+02 4.842543e+01 1.628108e+01
      vertex   4.500000e+02 5.931691e+01 1.300000e+01
    endloop
  endfacet
  facet normal 1.208081e-01 -9.926759e-01 0.000000e+00
    outer loop
      vertex   4.500000e+02 5.931691e+01 1.300000e+01
      vertex   3.605051e+02 4.842543e+01 1.628108e+01
      vertex   3.605051e+02 4.842543e+01 1.300000e+01
    endloop
  endfacet
  facet normal 1.208081e-01 -9.926759e-01 4.122877e-15
    outer loop
      vertex   3.610388e+02 5.325962e+01 1.825118e+01
      vertex   3.590423e+02 5.301664e+01 1.636903e+01
      vertex   4.500000e+02 6.408614e+01 1.300000e+01
    endloop
  endfacet
  facet normal 1.208081e-01 -9.926759e-01 0.000000e+00
    outer loop
      vertex   4.500000e+02 6.408614e+01 1.300000e+01
      vertex   3.590423e+02 5.301664e+01 1.636903e+01
      vertex   3.590423e+02 5.301664e+01 1.300000e+01
    endloop
  endfacet
  facet normal -7.348033e-01 6.782803e-01 0.000000e+00
    outer loop
      vertex   3.641420e+02 8.376372e+01 1.606641e+01
      vertex   3.641420e+02 8.376372e+01 1.400000e+01
      vertex   3.625706e+02 8.206142e+01 1.615916e+01
    endloop
  endfacet
  facet normal -7.348033e-01 6.782803e-01 0.000000e+00
    outer loop
      vertex   3.625706e+02 8.206142e+01 1.615916e+01
      vertex   3.641420e+02 8.376372e+01 1.400000e+01
      vertex   3.625706e+02 8.206142e+01 1.300000e+01
    endloop
  endfacet
  facet normal -7.348033e-01 6.782803e-01 1.863251e-14
    outer loop
      vertex   3.625706e+02 8.206142e+01 1.300000e+01
      vertex   3.641420e+02 8.376372e+01 1.400000e+01
      vertex   3.651896e+02 8.489859e+01 1.300000e+01
    endloop
  endfacet
  facet normal 1.208081e-01 -9.926759e-01 7.631287e-15
    outer loop
      vertex   3.610388e+02 5.802885e+01 1.825118e+01
      vertex   3.590423e+02 5.778587e+01 1.636903e+01
      vertex   4.500000e+02 6.885538e+01 1.300000e+01
    endloop
  endfacet
  facet normal 1.208081e-01 -9.926759e-01 0.000000e+00
    outer loop
      vertex   4.500000e+02 6.885538e+01 1.300000e+01
      vertex   3.590423e+02 5.778587e+01 1.636903e+01
      vertex   3.590423e+02 5.778587e+01 1.300000e+01
    endloop
  endfacet
  facet normal 1.208081e-01 -9.926759e-01 2.871609e-14
    outer loop
      vertex   3.656340e+02 8.243424e+01 1.797994e+01
      vertex   3.625706e+02 8.206142e+01 1.615916e+01
      vertex   4.500000e+02 9.270153e+01 1.300000e+01
    endloop
  endfacet
  facet normal 1.208081e-01 -9.926759e-01 0.000000e+00
    outer loop
      vertex   4.500000e+02 9.270153e+01 1.300000e+01
      vertex   3.625706e+02 8.206142e+01 1.615916e+01
      vertex   3.625706e+02 8.206142e+01 1.300000e+01
    endloop
  endfacet
  facet normal -7.348033e-01 6.782803e-01 0.000000e+00
    outer loop
      vertex   3.591825e+02 7.839092e+01 1.650119e+01
      vertex   3.591825e+02 7.839092e+01 1.400000e+01
      vertex   3.590423e+02 7.823905e+01 1.636903e+01
    endloop
  endfacet
  facet normal -7.348033e-01 6.782803e-01 -1.621256e-14
    outer loop
      vertex   3.590423e+02 7.823905e+01 1.636903e+01
      vertex   3.591825e+02 7.839092e+01 1.400000e+01
      vertex   3.590423e+02 7.823905e+01 1.300000e+01
    endloop
  endfacet
  facet normal -7.348033e-01 6.782803e-01 1.997109e-14
    outer loop
      vertex   3.590423e+02 7.823905e+01 1.300000e+01
      vertex   3.591825e+02 7.839092e+01 1.400000e+01
      vertex   3.602300e+02 7.952579e+01 1.300000e+01
    endloop
  endfacet
  facet normal -1.000000e+00 0.000000e+00 0.000000e+00
    outer loop
      vertex   3.590423e+02 7.686279e+01 1.636903e+01
      vertex   3.590423e+02 7.823905e+01 1.636903e+01
      vertex   3.590423e+02 7.686279e+01 1.300000e+01
    endloop
  endfacet
  facet normal -1.000000e+00 8.260583e-14 -3.374466e-14
    outer loop
      vertex   3.590423e+02 7.686279e+01 1.300000e+01
      vertex   3.590423e+02 7.823905e+01 1.636903e+01
      vertex   3.590423e+02 7.823905e+01 1.300000e+01
    endloop
  endfacet
  facet normal 1.208081e-01 -9.926759e-01 4.202163e-15
    outer loop
      vertex   3.610388e+02 6.279808e+01 1.825118e+01
      vertex   3.590423e+02 6.255510e+01 1.636903e+01
      vertex   4.500000e+02 7.362461e+01 1.300000e+01
    endloop
  endfacet
  facet normal 1.208081e-01 -9.926759e-01 0.000000e+00
    outer loop
      vertex   4.500000e+02 7.362461e+01 1.300000e+01
      vertex   3.590423e+02 6.255510e+01 1.636903e+01
      vertex   3.590423e+02 6.255510e+01 1.300000e+01
    endloop
  endfacet
  facet normal -1.000000e+00 -0.000000e+00 -0.000000e+00
    outer loop
      vertex   3.590423e+02 7.360463e+01 1.636903e+01
      vertex   3.590423e+02 7.360463e+01 1.400000e+01
      vertex   3.590423e+02 7.209356e+01 1.636903e+01
    endloop
  endfacet
  facet normal -1.000000e+00 0.000000e+00 0.000000e+00
    outer loop
      vertex   3.590423e+02 7.209356e+01 1.636903e+01
      vertex   3.590423e+02 7.360463e+01 1.400000e+01
      vertex   3.590423e+02 7.209356e+01 1.300000e+01
    endloop
  endfacet
  facet normal -1.000000e+00 2.257084e-14 -3.410605e-14
    outer loop
      vertex   3.590423e+02 7.209356e+01 1.300000e+01
      vertex   3.590423e+02 7.360463e+01 1.400000e+01
      vertex   3.590423e+02 7.461201e+01 1.300000e+01
    endloop
  endfacet
  facet normal 1.208081e-01 -9.926759e-01 1.484632e-14
    outer loop
      vertex   3.610388e+02 7.233654e+01 1.825118e+01
      vertex   3.590423e+02 7.209356e+01 1.636903e+01
      vertex   4.500000e+02 8.316307e+01 1.300000e+01
    endloop
  endfacet
  facet normal 1.208081e-01 -9.926759e-01 0.000000e+00
    outer loop
      vertex   4.500000e+02 8.316307e+01 1.300000e+01
      vertex   3.590423e+02 7.209356e+01 1.636903e+01
      vertex   3.590423e+02 7.209356e+01 1.300000e+01
    endloop
  endfacet
  facet normal 1.000000e+00 0.000000e+00 2.479778e-14
    outer loop
      vertex   4.500000e+02 4.023999e+01 1.300000e+01
      vertex   4.500000e+02 3.698183e+01 1.300000e+01
      vertex   4.500000e+02 3.528830e+01 1.070772e+01
    endloop
  endfacet
  facet normal 1.000000e+00 0.000000e+00 2.479778e-14
    outer loop
      vertex   4.500000e+02 3.528830e+01 1.070772e+01
      vertex   4.500000e+02 3.698183e+01 1.300000e+01
      vertex   4.500000e+02 3.547076e+01 1.300000e+01
    endloop
  endfacet
  facet normal 1.000000e+00 -8.714524e-26 2.479778e-14
    outer loop
      vertex   4.500000e+02 3.528830e+01 1.070772e+01
      vertex   4.500000e+02 3.547076e+01 1.300000e+01
      vertex   4.500000e+02 3.300000e+01 1.300000e+01
    endloop
  endfacet
  facet normal 1.000000e+00 4.809861e-15 -4.818233e-15
    outer loop
      vertex   4.500000e+02 3.457934e+01 1.000000e+01
      vertex   4.500000e+02 9.366985e+01 1.000000e+01
      vertex   4.500000e+02 3.528830e+01 1.070772e+01
    endloop
  endfacet
  facet normal 1.000000e+00 4.928113e-15 4.936691e-15
    outer loop
      vertex   4.500000e+02 3.528830e+01 1.070772e+01
      vertex   4.500000e+02 9.366985e+01 1.000000e+01
      vertex   4.500000e+02 9.296089e+01 1.070772e+01
    endloop
  endfacet
  facet normal 1.000000e+00 4.928113e-15 3.727933e-14
    outer loop
      vertex   4.500000e+02 3.528830e+01 1.070772e+01
      vertex   4.500000e+02 9.296089e+01 1.070772e+01
      vertex   4.500000e+02 6.408614e+01 1.300000e+01
    endloop
  endfacet
  facet normal 1.000000e+00 -3.159917e-13 -4.005196e-12
    outer loop
      vertex   4.500000e+02 6.408614e+01 1.300000e+01
      vertex   4.500000e+02 9.296089e+01 1.070772e+01
      vertex   4.500000e+02 6.660459e+01 1.300000e+01
    endloop
  endfacet
  facet normal 1.000000e+00 3.535690e-13 3.693321e-12
    outer loop
      vertex   4.500000e+02 6.660459e+01 1.300000e+01
      vertex   4.500000e+02 9.296089e+01 1.070772e+01
      vertex   4.500000e+02 6.885538e+01 1.300000e+01
    endloop
  endfacet
  facet normal 1.000000e+00 -3.611334e-13 -3.822463e-12
    outer loop
      vertex   4.500000e+02 6.885538e+01 1.300000e+01
      vertex   4.500000e+02 9.296089e+01 1.070772e+01
      vertex   4.500000e+02 7.137382e+01 1.300000e+01
    endloop
  endfacet
  facet normal 1.000000e+00 4.040788e-13 3.383769e-12
    outer loop
      vertex   4.500000e+02 7.137382e+01 1.300000e+01
      vertex   4.500000e+02 9.296089e+01 1.070772e+01
      vertex   4.500000e+02 7.362461e+01 1.300000e+01
    endloop
  endfacet
  facet normal 1.000000e+00 -3.611334e-13 -3.071102e-12
    outer loop
      vertex   4.500000e+02 7.362461e+01 1.300000e+01
      vertex   4.500000e+02 9.296089e+01 1.070772e+01
      vertex   4.500000e+02 7.614305e+01 1.300000e+01
    endloop
  endfacet
  facet normal 1.000000e+00 4.293337e-13 2.728346e-12
    outer loop
      vertex   4.500000e+02 7.614305e+01 1.300000e+01
      vertex   4.500000e+02 9.296089e+01 1.070772e+01
      vertex   4.500000e+02 7.839384e+01 1.300000e+01
    endloop
  endfacet
  facet normal 1.000000e+00 -3.837042e-13 -2.438378e-12
    outer loop
      vertex   4.500000e+02 7.839384e+01 1.300000e+01
      vertex   4.500000e+02 9.296089e+01 1.070772e+01
      vertex   4.500000e+02 8.091228e+01 1.300000e+01
    endloop
  endfacet
  facet normal 1.000000e+00 4.293337e-13 1.835090e-12
    outer loop
      vertex   4.500000e+02 8.091228e+01 1.300000e+01
      vertex   4.500000e+02 9.296089e+01 1.070772e+01
      vertex   4.500000e+02 8.316307e+01 1.300000e+01
    endloop
  endfacet
  facet normal 1.000000e+00 -4.062751e-13 -1.736531e-12
    outer loop
      vertex   4.500000e+02 8.316307e+01 1.300000e+01
      vertex   4.500000e+02 9.296089e+01 1.070772e+01
      vertex   4.500000e+02 8.568151e+01 1.300000e+01
    endloop
  endfacet
  facet normal 1.000000e+00 4.545887e-13 9.972358e-13
    outer loop
      vertex   4.500000e+02 8.568151e+01 1.300000e+01
      vertex   4.500000e+02 9.296089e+01 1.070772e+01
      vertex   4.500000e+02 8.793230e+01 1.300000e+01
    endloop
  endfacet
  facet normal 1.000000e+00 -4.062751e-13 -8.912497e-13
    outer loop
      vertex   4.500000e+02 8.793230e+01 1.300000e+01
      vertex   4.500000e+02 9.296089e+01 1.070772e+01
      vertex   4.500000e+02 9.045074e+01 1.300000e+01
    endloop
  endfacet
  facet normal 1.000000e+00 4.545887e-13 5.143526e-14
    outer loop
      vertex   4.500000e+02 9.045074e+01 1.300000e+01
      vertex   4.500000e+02 9.296089e+01 1.070772e+01
      vertex   4.500000e+02 9.270153e+01 1.300000e+01
    endloop
  endfacet
  facet normal 1.000000e+00 -4.062751e-13 -4.596873e-14
    outer loop
      vertex   4.500000e+02 9.270153e+01 1.300000e+01
      vertex   4.500000e+02 9.296089e+01 1.070772e+01
      vertex   4.500000e+02 9.521997e+01 1.300000e+01
    endloop
  endfacet
  facet normal 1.000000e+00 3.696920e-11 -3.688016e-11
    outer loop
      vertex   4.500000e+02 9.521997e+01 1.300000e+01
      vertex   4.500000e+02 9.296089e+01 1.070772e+01
      vertex   4.500000e+02 9.524919e+01 1.300000e+01
    endloop
  endfacet
  facet normal 1.000000e+00 3.535690e-13 -4.342689e-12
    outer loop
      vertex   4.500000e+02 6.408614e+01 1.300000e+01
      vertex   4.500000e+02 6.183536e+01 1.300000e+01
      vertex   4.500000e+02 3.528830e+01 1.070772e+01
    endloop
  endfacet
  facet normal 1.000000e+00 -2.708500e-13 2.888758e-12
    outer loop
      vertex   4.500000e+02 3.528830e+01 1.070772e+01
      vertex   4.500000e+02 6.183536e+01 1.300000e+01
      vertex   4.500000e+02 5.931691e+01 1.300000e+01
    endloop
  endfacet
  facet normal 1.000000e+00 3.030591e-13 -3.127196e-12
    outer loop
      vertex   4.500000e+02 3.528830e+01 1.070772e+01
      vertex   4.500000e+02 5.931691e+01 1.300000e+01
      vertex   4.500000e+02 5.706613e+01 1.300000e+01
    endloop
  endfacet
  facet normal 1.000000e+00 -2.708500e-13 2.325238e-12
    outer loop
      vertex   4.500000e+02 5.706613e+01 1.300000e+01
      vertex   4.500000e+02 5.454768e+01 1.300000e+01
      vertex   4.500000e+02 3.528830e+01 1.070772e+01
    endloop
  endfacet
  facet normal 1.000000e+00 2.778042e-13 -2.284474e-12
    outer loop
      vertex   4.500000e+02 3.528830e+01 1.070772e+01
      vertex   4.500000e+02 5.454768e+01 1.300000e+01
      vertex   4.500000e+02 5.229690e+01 1.300000e+01
    endloop
  endfacet
  facet normal 1.000000e+00 -2.482792e-13 1.619040e-12
    outer loop
      vertex   4.500000e+02 3.528830e+01 1.070772e+01
      vertex   4.500000e+02 5.229690e+01 1.300000e+01
      vertex   4.500000e+02 4.977845e+01 1.300000e+01
    endloop
  endfacet
  facet normal 1.000000e+00 2.778042e-13 -1.706485e-12
    outer loop
      vertex   4.500000e+02 4.977845e+01 1.300000e+01
      vertex   4.500000e+02 4.752767e+01 1.300000e+01
      vertex   4.500000e+02 3.528830e+01 1.070772e+01
    endloop
  endfacet
  facet normal 1.000000e+00 -2.482792e-13 1.102480e-12
    outer loop
      vertex   4.500000e+02 3.528830e+01 1.070772e+01
      vertex   4.500000e+02 4.752767e+01 1.300000e+01
      vertex   4.500000e+02 4.500922e+01 1.300000e+01
    endloop
  endfacet
  facet normal 1.000000e+00 2.778042e-13 -1.128496e-12
    outer loop
      vertex   4.500000e+02 3.528830e+01 1.070772e+01
      vertex   4.500000e+02 4.500922e+01 1.300000e+01
      vertex   4.500000e+02 4.275844e+01 1.300000e+01
    endloop
  endfacet
  facet normal 1.000000e+00 -2.257084e-13 5.123646e-13
    outer loop
      vertex   4.500000e+02 4.275844e+01 1.300000e+01
      vertex   4.500000e+02 4.023999e+01 1.300000e+01
      vertex   4.500000e+02 3.528830e+01 1.070772e+01
    endloop
  endfacet
  facet normal -5.882318e-02 9.982684e-01 0.000000e+00
    outer loop
      vertex   3.905387e+02 9.174542e+01 1.650987e+01
      vertex   4.146101e+02 9.316383e+01 1.508898e+01
      vertex   3.905387e+02 9.174542e+01 1.300000e+01
    endloop
  endfacet
  facet normal -5.882318e-02 9.982684e-01 0.000000e+00
    outer loop
      vertex   3.905387e+02 9.174542e+01 1.300000e+01
      vertex   4.146101e+02 9.316383e+01 1.508898e+01
      vertex   4.146101e+02 9.316383e+01 1.300000e+01
    endloop
  endfacet
  facet normal -1.208081e-01 9.926759e-01 0.000000e+00
    outer loop
      vertex   4.279552e+02 3.429899e+01 1.430125e+01
      vertex   4.500000e+02 3.698183e+01 1.300000e+01
      vertex   4.279552e+02 3.429899e+01 1.300000e+01
    endloop
  endfacet
  facet normal -5.882318e-02 -9.982684e-01 -0.000000e+00
    outer loop
      vertex   4.279552e+02 3.429899e+01 1.430125e+01
      vertex   4.279552e+02 3.429899e+01 1.300000e+01
      vertex   4.363210e+02 3.380604e+01 1.380744e+01
    endloop
  endfacet
  facet normal -5.882318e-02 -9.982684e-01 -0.000000e+00
    outer loop
      vertex   4.363210e+02 3.380604e+01 1.380744e+01
      vertex   4.279552e+02 3.429899e+01 1.300000e+01
      vertex   4.363210e+02 3.380604e+01 1.300000e+01
    endloop
  endfacet
  facet normal 0.000000e+00 -0.000000e+00 1.000000e+00
    outer loop
      vertex   4.279552e+02 3.429899e+01 1.300000e+01
      vertex   4.500000e+02 3.698183e+01 1.300000e+01
      vertex   4.099169e+02 3.536190e+01 1.300000e+01
    endloop
  endfacet
  facet normal 0.000000e+00 0.000000e+00 1.000000e+00
    outer loop
      vertex   4.099169e+02 3.536190e+01 1.300000e+01
      vertex   4.500000e+02 3.698183e+01 1.300000e+01
      vertex   4.500000e+02 4.023999e+01 1.300000e+01
    endloop
  endfacet
  facet normal 4.276805e-13 -3.514236e-12 1.000000e+00
    outer loop
      vertex   4.500000e+02 3.547076e+01 1.300000e+01
      vertex   4.363210e+02 3.380604e+01 1.300000e+01
      vertex   4.500000e+02 3.300000e+01 1.300000e+01
    endloop
  endfacet
  facet normal -7.348033e-01 -6.782803e-01 -0.000000e+00
    outer loop
      vertex   3.632089e+02 4.549632e+01 1.612148e+01
      vertex   3.632089e+02 4.549632e+01 1.400000e+01
      vertex   3.644628e+02 4.413786e+01 1.604747e+01
    endloop
  endfacet
  facet normal -7.348033e-01 -6.782803e-01 -0.000000e+00
    outer loop
      vertex   3.644628e+02 4.413786e+01 1.604747e+01
      vertex   3.632089e+02 4.549632e+01 1.400000e+01
      vertex   3.644628e+02 4.413786e+01 1.300000e+01
    endloop
  endfacet
  facet normal -7.348033e-01 -6.782803e-01 4.323812e-16
    outer loop
      vertex   3.644628e+02 4.413786e+01 1.300000e+01
      vertex   3.632089e+02 4.549632e+01 1.400000e+01
      vertex   3.623729e+02 4.640196e+01 1.300000e+01
    endloop
  endfacet
  facet normal -9.604720e-16 7.892164e-15 1.000000e+00
    outer loop
      vertex   3.623729e+02 4.640196e+01 1.300000e+01
      vertex   4.500000e+02 5.706613e+01 1.300000e+01
      vertex   3.605051e+02 4.842543e+01 1.300000e+01
    endloop
  endfacet
  facet normal -9.604720e-16 7.892164e-15 1.000000e+00
    outer loop
      vertex   3.605051e+02 4.842543e+01 1.300000e+01
      vertex   4.500000e+02 5.706613e+01 1.300000e+01
      vertex   4.500000e+02 5.931691e+01 1.300000e+01
    endloop
  endfacet
  facet normal -9.604720e-16 7.892164e-15 1.000000e+00
    outer loop
      vertex   3.663307e+02 4.211439e+01 1.300000e+01
      vertex   4.500000e+02 5.229690e+01 1.300000e+01
      vertex   3.644628e+02 4.413786e+01 1.300000e+01
    endloop
  endfacet
  facet normal -9.604720e-16 7.892164e-15 1.000000e+00
    outer loop
      vertex   3.644628e+02 4.413786e+01 1.300000e+01
      vertex   4.500000e+02 5.229690e+01 1.300000e+01
      vertex   4.500000e+02 5.454768e+01 1.300000e+01
    endloop
  endfacet
  facet normal -1.000000e+00 -0.000000e+00 -0.000000e+00
    outer loop
      vertex   3.590423e+02 6.406617e+01 1.636903e+01
      vertex   3.590423e+02 6.406617e+01 1.400000e+01
      vertex   3.590423e+02 6.255510e+01 1.636903e+01
    endloop
  endfacet
  facet normal -1.000000e+00 0.000000e+00 0.000000e+00
    outer loop
      vertex   3.590423e+02 6.255510e+01 1.636903e+01
      vertex   3.590423e+02 6.406617e+01 1.400000e+01
      vertex   3.590423e+02 6.255510e+01 1.300000e+01
    endloop
  endfacet
  facet normal -1.000000e+00 4.514167e-14 -6.821210e-14
    outer loop
      vertex   3.590423e+02 6.255510e+01 1.300000e+01
      vertex   3.590423e+02 6.406617e+01 1.400000e+01
      vertex   3.590423e+02 6.507355e+01 1.300000e+01
    endloop
  endfacet
  facet normal -9.604720e-16 7.892164e-15 1.000000e+00
    outer loop
      vertex   3.590423e+02 6.507355e+01 1.300000e+01
      vertex   4.500000e+02 7.614305e+01 1.300000e+01
      vertex   3.590423e+02 6.732433e+01 1.300000e+01
    endloop
  endfacet
  facet normal -9.604720e-16 7.892164e-15 1.000000e+00
    outer loop
      vertex   3.590423e+02 6.732433e+01 1.300000e+01
      vertex   4.500000e+02 7.614305e+01 1.300000e+01
      vertex   4.500000e+02 7.839384e+01 1.300000e+01
    endloop
  endfacet
  facet normal -9.604720e-16 7.892164e-15 1.000000e+00
    outer loop
      vertex   3.590423e+02 6.030432e+01 1.300000e+01
      vertex   4.500000e+02 7.137382e+01 1.300000e+01
      vertex   3.590423e+02 6.255510e+01 1.300000e+01
    endloop
  endfacet
  facet normal -9.604720e-16 7.892164e-15 1.000000e+00
    outer loop
      vertex   3.590423e+02 6.255510e+01 1.300000e+01
      vertex   4.500000e+02 7.137382e+01 1.300000e+01
      vertex   4.500000e+02 7.362461e+01 1.300000e+01
    endloop
  endfacet
  facet normal -9.604720e-16 7.892164e-15 1.000000e+00
    outer loop
      vertex   3.675301e+02 8.743422e+01 1.300000e+01
      vertex   3.651896e+02 8.489859e+01 1.300000e+01
      vertex   4.146101e+02 9.316383e+01 1.300000e+01
    endloop
  endfacet
  facet normal -9.604720e-16 7.892164e-15 1.000000e+00
    outer loop
      vertex   4.146101e+02 9.316383e+01 1.300000e+01
      vertex   3.651896e+02 8.489859e+01 1.300000e+01
      vertex   4.500000e+02 9.521997e+01 1.300000e+01
    endloop
  endfacet
  facet normal -1.730381e-11 2.978210e-10 1.000000e+00
    outer loop
      vertex   4.146101e+02 9.316383e+01 1.300000e+01
      vertex   4.500000e+02 9.521997e+01 1.300000e+01
      vertex   4.500000e+02 9.524919e+01 1.300000e+01
    endloop
  endfacet
  facet normal -9.604720e-16 7.892164e-15 1.000000e+00
    outer loop
      vertex   3.602300e+02 7.952579e+01 1.300000e+01
      vertex   4.500000e+02 9.045074e+01 1.300000e+01
      vertex   3.625706e+02 8.206142e+01 1.300000e+01
    endloop
  endfacet
  facet normal -9.604720e-16 7.892164e-15 1.000000e+00
    outer loop
      vertex   3.625706e+02 8.206142e+01 1.300000e+01
      vertex   4.500000e+02 9.045074e+01 1.300000e+01
      vertex   4.500000e+02 9.270153e+01 1.300000e+01
    endloop
  endfacet
  facet normal -9.604720e-16 7.892164e-15 1.000000e+00
    outer loop
      vertex   3.590423e+02 7.461201e+01 1.300000e+01
      vertex   4.500000e+02 8.568151e+01 1.300000e+01
      vertex   3.590423e+02 7.686279e+01 1.300000e+01
    endloop
  endfacet
  facet normal -9.604720e-16 7.892164e-15 1.000000e+00
    outer loop
      vertex   3.590423e+02 7.686279e+01 1.300000e+01
      vertex   4.500000e+02 8.568151e+01 1.300000e+01
      vertex   4.500000e+02 8.793230e+01 1.300000e+01
    endloop
  endfacet
  facet normal -1.000000e+00 -0.000000e+00 -0.000000e+00
    outer loop
      vertex   3.590423e+02 5.929694e+01 1.636903e+01
      vertex   3.590423e+02 5.929694e+01 1.400000e+01
      vertex   3.590423e+02 5.778587e+01 1.636903e+01
    endloop
  endfacet
  facet normal -1.000000e+00 0.000000e+00 0.000000e+00
    outer loop
      vertex   3.590423e+02 5.778587e+01 1.636903e+01
      vertex   3.590423e+02 5.929694e+01 1.400000e+01
      vertex   3.590423e+02 5.778587e+01 1.300000e+01
    endloop
  endfacet
  facet normal -1.000000e+00 2.257084e-14 -3.410605e-14
    outer loop
      vertex   3.590423e+02 5.778587e+01 1.300000e+01
      vertex   3.590423e+02 5.929694e+01 1.400000e+01
      vertex   3.590423e+02 6.030432e+01 1.300000e+01
    endloop
  endfacet
  facet normal -9.604720e-16 7.892164e-15 1.000000e+00
    outer loop
      vertex   3.590423e+02 5.553509e+01 1.300000e+01
      vertex   4.500000e+02 6.660459e+01 1.300000e+01
      vertex   3.590423e+02 5.778587e+01 1.300000e+01
    endloop
  endfacet
  facet normal -9.604720e-16 7.892164e-15 1.000000e+00
    outer loop
      vertex   3.590423e+02 5.778587e+01 1.300000e+01
      vertex   4.500000e+02 6.660459e+01 1.300000e+01
      vertex   4.500000e+02 6.885538e+01 1.300000e+01
    endloop
  endfacet
  facet normal -7.348033e-01 -6.782803e-01 -0.000000e+00
    outer loop
      vertex   3.671666e+02 4.120875e+01 1.588787e+01
      vertex   3.671666e+02 4.120875e+01 1.400000e+01
      vertex   3.684206e+02 3.985029e+01 1.581385e+01
    endloop
  endfacet
  facet normal -7.348033e-01 -6.782803e-01 -0.000000e+00
    outer loop
      vertex   3.684206e+02 3.985029e+01 1.581385e+01
      vertex   3.671666e+02 4.120875e+01 1.400000e+01
      vertex   3.684206e+02 3.985029e+01 1.300000e+01
    endloop
  endfacet
  facet normal -7.348033e-01 -6.782803e-01 -2.176319e-14
    outer loop
      vertex   3.684206e+02 3.985029e+01 1.300000e+01
      vertex   3.671666e+02 4.120875e+01 1.400000e+01
      vertex   3.663307e+02 4.211439e+01 1.300000e+01
    endloop
  endfacet
  facet normal -9.604720e-16 7.892164e-15 1.000000e+00
    outer loop
      vertex   3.702884e+02 3.782681e+01 1.300000e+01
      vertex   4.500000e+02 4.752767e+01 1.300000e+01
      vertex   3.684206e+02 3.985029e+01 1.300000e+01
    endloop
  endfacet
  facet normal -9.604720e-16 7.892164e-15 1.000000e+00
    outer loop
      vertex   3.684206e+02 3.985029e+01 1.300000e+01
      vertex   4.500000e+02 4.752767e+01 1.300000e+01
      vertex   4.500000e+02 4.977845e+01 1.300000e+01
    endloop
  endfacet
  facet normal -5.882318e-02 -9.982684e-01 -0.000000e+00
    outer loop
      vertex   4.015511e+02 3.585486e+01 1.585983e+01
      vertex   4.015511e+02 3.585486e+01 1.400000e+01
      vertex   4.099169e+02 3.536190e+01 1.536601e+01
    endloop
  endfacet
  facet normal -5.882318e-02 -9.982684e-01 -0.000000e+00
    outer loop
      vertex   4.099169e+02 3.536190e+01 1.536601e+01
      vertex   4.015511e+02 3.585486e+01 1.400000e+01
      vertex   4.099169e+02 3.536190e+01 1.300000e+01
    endloop
  endfacet
  facet normal -5.882318e-02 -9.982684e-01 1.673701e-12
    outer loop
      vertex   4.099169e+02 3.536190e+01 1.300000e+01
      vertex   4.015511e+02 3.585486e+01 1.400000e+01
      vertex   3.959740e+02 3.618350e+01 1.300000e+01
    endloop
  endfacet
  facet normal -9.604720e-16 7.892164e-15 1.000000e+00
    outer loop
      vertex   3.959740e+02 3.618350e+01 1.300000e+01
      vertex   4.500000e+02 4.275844e+01 1.300000e+01
      vertex   3.835128e+02 3.691777e+01 1.300000e+01
    endloop
  endfacet
  facet normal -9.604720e-16 7.892164e-15 1.000000e+00
    outer loop
      vertex   3.835128e+02 3.691777e+01 1.300000e+01
      vertex   4.500000e+02 4.275844e+01 1.300000e+01
      vertex   4.500000e+02 4.500922e+01 1.300000e+01
    endloop
  endfacet
  facet normal -7.348033e-01 -6.782803e-01 -0.000000e+00
    outer loop
      vertex   3.592511e+02 4.978389e+01 1.635510e+01
      vertex   3.592511e+02 4.978389e+01 1.400000e+01
      vertex   3.605051e+02 4.842543e+01 1.628108e+01
    endloop
  endfacet
  facet normal -7.348033e-01 -6.782803e-01 -0.000000e+00
    outer loop
      vertex   3.605051e+02 4.842543e+01 1.628108e+01
      vertex   3.592511e+02 4.978389e+01 1.400000e+01
      vertex   3.605051e+02 4.842543e+01 1.300000e+01
    endloop
  endfacet
  facet normal -7.348033e-01 -6.782803e-01 -5.467106e-14
    outer loop
      vertex   3.605051e+02 4.842543e+01 1.300000e+01
      vertex   3.592511e+02 4.978389e+01 1.400000e+01
      vertex   3.590423e+02 5.001014e+01 1.300000e+01
    endloop
  endfacet
  facet normal -7.348033e-01 -6.782803e-01 -5.969821e-14
    outer loop
      vertex   3.590423e+02 5.001014e+01 1.300000e+01
      vertex   3.592511e+02 4.978389e+01 1.400000e+01
      vertex   3.587099e+02 5.037022e+01 1.335258e+01
    endloop
  endfacet
  facet normal -9.604720e-16 7.892164e-15 1.000000e+00
    outer loop
      vertex   3.590423e+02 5.076586e+01 1.300000e+01
      vertex   4.500000e+02 6.183536e+01 1.300000e+01
      vertex   3.590423e+02 5.301664e+01 1.300000e+01
    endloop
  endfacet
  facet normal -9.604720e-16 7.892164e-15 1.000000e+00
    outer loop
      vertex   3.590423e+02 5.301664e+01 1.300000e+01
      vertex   4.500000e+02 6.183536e+01 1.300000e+01
      vertex   4.500000e+02 6.408614e+01 1.300000e+01
    endloop
  endfacet
  facet normal -1.000000e+00 -0.000000e+00 -0.000000e+00
    outer loop
      vertex   3.590423e+02 6.883540e+01 1.636903e+01
      vertex   3.590423e+02 6.883540e+01 1.400000e+01
      vertex   3.590423e+02 6.732433e+01 1.636903e+01
    endloop
  endfacet
  facet normal -1.000000e+00 0.000000e+00 0.000000e+00
    outer loop
      vertex   3.590423e+02 6.732433e+01 1.636903e+01
      vertex   3.590423e+02 6.883540e+01 1.400000e+01
      vertex   3.590423e+02 6.732433e+01 1.300000e+01
    endloop
  endfacet
  facet normal -1.000000e+00 2.257084e-14 -3.410605e-14
    outer loop
      vertex   3.590423e+02 6.732433e+01 1.300000e+01
      vertex   3.590423e+02 6.883540e+01 1.400000e+01
      vertex   3.590423e+02 6.984278e+01 1.300000e+01
    endloop
  endfacet
  facet normal 1.208081e-01 -9.926759e-01 4.122877e-15
    outer loop
      vertex   3.610388e+02 6.756731e+01 1.825118e+01
      vertex   3.590423e+02 6.732433e+01 1.636903e+01
      vertex   4.500000e+02 7.839384e+01 1.300000e+01
    endloop
  endfacet
  facet normal 1.208081e-01 -9.926759e-01 0.000000e+00
    outer loop
      vertex   4.500000e+02 7.839384e+01 1.300000e+01
      vertex   3.590423e+02 6.732433e+01 1.636903e+01
      vertex   3.590423e+02 6.732433e+01 1.300000e+01
    endloop
  endfacet
  facet normal -9.604720e-16 7.892164e-15 1.000000e+00
    outer loop
      vertex   3.590423e+02 6.984278e+01 1.300000e+01
      vertex   4.500000e+02 8.091228e+01 1.300000e+01
      vertex   3.590423e+02 7.209356e+01 1.300000e+01
    endloop
  endfacet
  facet normal -9.604720e-16 7.892164e-15 1.000000e+00
    outer loop
      vertex   3.590423e+02 7.209356e+01 1.300000e+01
      vertex   4.500000e+02 8.091228e+01 1.300000e+01
      vertex   4.500000e+02 8.316307e+01 1.300000e+01
    endloop
  endfacet
  facet normal -1.208081e-01 9.926759e-01 2.447692e-14
    outer loop
      vertex   3.721649e+02 8.950934e+01 1.759443e+01
      vertex   3.905387e+02 9.174542e+01 1.650987e+01
      vertex   3.691015e+02 8.913652e+01 1.577366e+01
    endloop
  endfacet
  facet normal -1.208081e-01 9.926759e-01 0.000000e+00
    outer loop
      vertex   3.691015e+02 8.913652e+01 1.577366e+01
      vertex   3.905387e+02 9.174542e+01 1.650987e+01
      vertex   3.905387e+02 9.174542e+01 1.300000e+01
    endloop
  endfacet
  facet normal -1.208081e-01 9.926759e-01 0.000000e+00
    outer loop
      vertex   3.691015e+02 8.913652e+01 1.577366e+01
      vertex   3.905387e+02 9.174542e+01 1.300000e+01
      vertex   3.691015e+02 8.913652e+01 1.300000e+01
    endloop
  endfacet
  facet normal -7.348033e-01 6.782803e-01 0.000000e+00
    outer loop
      vertex   3.675301e+02 8.743422e+01 1.586641e+01
      vertex   3.691015e+02 8.913652e+01 1.577366e+01
      vertex   3.675301e+02 8.743422e+01 1.300000e+01
    endloop
  endfacet
  facet normal -7.348033e-01 6.782803e-01 0.000000e+00
    outer loop
      vertex   3.675301e+02 8.743422e+01 1.300000e+01
      vertex   3.691015e+02 8.913652e+01 1.577366e+01
      vertex   3.691015e+02 8.913652e+01 1.300000e+01
    endloop
  endfacet
  facet normal 1.711326e-15 -1.406190e-14 1.000000e+00
    outer loop
      vertex   3.691015e+02 8.913652e+01 1.300000e+01
      vertex   3.905387e+02 9.174542e+01 1.300000e+01
      vertex   3.704151e+02 9.055963e+01 1.300000e+01
    endloop
  endfacet
  facet normal -1.000000e+00 -0.000000e+00 -0.000000e+00
    outer loop
      vertex   3.590423e+02 5.452771e+01 1.636903e+01
      vertex   3.590423e+02 5.452771e+01 1.400000e+01
      vertex   3.590423e+02 5.301664e+01 1.636903e+01
    endloop
  endfacet
  facet normal -1.000000e+00 0.000000e+00 0.000000e+00
    outer loop
      vertex   3.590423e+02 5.301664e+01 1.636903e+01
      vertex   3.590423e+02 5.452771e+01 1.400000e+01
      vertex   3.590423e+02 5.301664e+01 1.300000e+01
    endloop
  endfacet
  facet normal -1.000000e+00 2.257084e-14 -3.410605e-14
    outer loop
      vertex   3.590423e+02 5.301664e+01 1.300000e+01
      vertex   3.590423e+02 5.452771e+01 1.400000e+01
      vertex   3.590423e+02 5.553509e+01 1.300000e+01
    endloop
  endfacet
  facet normal -5.882318e-02 -9.982684e-01 -0.000000e+00
    outer loop
      vertex   3.751470e+02 3.741073e+01 1.741840e+01
      vertex   3.751470e+02 3.741073e+01 1.400000e+01
      vertex   3.835128e+02 3.691777e+01 1.692459e+01
    endloop
  endfacet
  facet normal -5.882318e-02 -9.982684e-01 -0.000000e+00
    outer loop
      vertex   3.835128e+02 3.691777e+01 1.692459e+01
      vertex   3.751470e+02 3.741073e+01 1.400000e+01
      vertex   3.835128e+02 3.691777e+01 1.300000e+01
    endloop
  endfacet
  facet normal -5.882318e-02 -9.982684e-01 -1.414812e-14
    outer loop
      vertex   3.835128e+02 3.691777e+01 1.300000e+01
      vertex   3.751470e+02 3.741073e+01 1.400000e+01
      vertex   3.704151e+02 3.768956e+01 1.300000e+01
    endloop
  endfacet
  facet normal -5.882318e-02 -9.982684e-01 -2.160672e-13
    outer loop
      vertex   3.704151e+02 3.768956e+01 1.300000e+01
      vertex   3.751470e+02 3.741073e+01 1.400000e+01
      vertex   3.702476e+02 3.769942e+01 1.312153e+01
    endloop
  endfacet
  facet normal -7.071068e-01 7.071068e-01 0.000000e+00
    outer loop
      vertex   3.606704e+02 7.755605e+01 1.000000e+01
      vertex   3.606704e+02 7.755605e+01 1.126683e+01
      vertex   3.721998e+02 8.908545e+01 1.000000e+01
    endloop
  endfacet
  facet normal -7.071068e-01 7.071068e-01 7.799908e-14
    outer loop
      vertex   3.721998e+02 8.908545e+01 1.000000e+01
      vertex   3.606704e+02 7.755605e+01 1.126683e+01
      vertex   3.715339e+02 8.841954e+01 1.062558e+01
    endloop
  endfacet
  facet normal 0.000000e+00 0.000000e+00 -1.000000e+00
    outer loop
      vertex   3.606704e+02 5.069314e+01 1.000000e+01
      vertex   3.606704e+02 7.755605e+01 1.000000e+01
      vertex   4.500000e+02 3.457934e+01 1.000000e+01
    endloop
  endfacet
  facet normal 0.000000e+00 0.000000e+00 -1.000000e+00
    outer loop
      vertex   4.500000e+02 3.457934e+01 1.000000e+01
      vertex   3.606704e+02 7.755605e+01 1.000000e+01
      vertex   3.721998e+02 8.908545e+01 1.000000e+01
    endloop
  endfacet
  facet normal 0.000000e+00 0.000000e+00 -1.000000e+00
    outer loop
      vertex   4.500000e+02 3.457934e+01 1.000000e+01
      vertex   3.721998e+02 8.908545e+01 1.000000e+01
      vertex   4.500000e+02 9.366985e+01 1.000000e+01
    endloop
  endfacet
  facet normal 0.000000e+00 0.000000e+00 -1.000000e+00
    outer loop
      vertex   4.500000e+02 3.457934e+01 1.000000e+01
      vertex   3.721998e+02 3.916373e+01 1.000000e+01
      vertex   3.606704e+02 5.069314e+01 1.000000e+01
    endloop
  endfacet
  facet normal -5.307226e-01 4.898980e-01 -6.916166e-01
    outer loop
      vertex   3.715339e+02 8.841954e+01 1.062558e+01
      vertex   3.606704e+02 7.755605e+01 1.126683e+01
      vertex   3.713404e+02 8.832586e+01 1.070772e+01
    endloop
  endfacet
  facet normal -5.307226e-01 4.898980e-01 -6.916166e-01
    outer loop
      vertex   3.713404e+02 8.832586e+01 1.070772e+01
      vertex   3.606704e+02 7.755605e+01 1.126683e+01
      vertex   3.651896e+02 8.489859e+01 1.300000e+01
    endloop
  endfacet
  facet normal -5.307226e-01 4.898980e-01 -6.916166e-01
    outer loop
      vertex   3.713404e+02 8.832586e+01 1.070772e+01
      vertex   3.651896e+02 8.489859e+01 1.300000e+01
      vertex   3.675301e+02 8.743422e+01 1.300000e+01
    endloop
  endfacet
  facet normal -5.307226e-01 4.898980e-01 -6.916166e-01
    outer loop
      vertex   3.651896e+02 8.489859e+01 1.300000e+01
      vertex   3.606704e+02 7.755605e+01 1.126683e+01
      vertex   3.625706e+02 8.206142e+01 1.300000e+01
    endloop
  endfacet
  facet normal -5.307226e-01 4.898980e-01 -6.916166e-01
    outer loop
      vertex   3.625706e+02 8.206142e+01 1.300000e+01
      vertex   3.606704e+02 7.755605e+01 1.126683e+01
      vertex   3.606704e+02 7.756466e+01 1.127293e+01
    endloop
  endfacet
  facet normal -5.307226e-01 4.898980e-01 -6.916166e-01
    outer loop
      vertex   3.625706e+02 8.206142e+01 1.300000e+01
      vertex   3.606704e+02 7.756466e+01 1.127293e+01
      vertex   3.602300e+02 7.952579e+01 1.300000e+01
    endloop
  endfacet
  facet normal -5.307226e-01 4.898980e-01 -6.916166e-01
    outer loop
      vertex   3.602300e+02 7.952579e+01 1.300000e+01
      vertex   3.606704e+02 7.756466e+01 1.127293e+01
      vertex   3.590423e+02 7.823905e+01 1.300000e+01
    endloop
  endfacet
  facet normal -5.307226e-01 4.898980e-01 -6.916166e-01
    outer loop
      vertex   3.675301e+02 8.743422e+01 1.300000e+01
      vertex   3.691015e+02 8.913652e+01 1.300000e+01
      vertex   3.713404e+02 8.832586e+01 1.070772e+01
    endloop
  endfacet
  facet normal -5.307226e-01 4.898980e-01 -6.916166e-01
    outer loop
      vertex   3.713404e+02 8.832586e+01 1.070772e+01
      vertex   3.691015e+02 8.913652e+01 1.300000e+01
      vertex   3.704151e+02 9.055963e+01 1.300000e+01
    endloop
  endfacet
  facet normal -4.159414e-02 7.058802e-01 7.071089e-01
    outer loop
      vertex   3.713404e+02 8.832586e+01 1.070772e+01
      vertex   4.500000e+02 9.296089e+01 1.070772e+01
      vertex   3.715339e+02 8.841954e+01 1.062558e+01
    endloop
  endfacet
  facet normal -4.159414e-02 7.058802e-01 7.071089e-01
    outer loop
      vertex   3.715339e+02 8.841954e+01 1.062558e+01
      vertex   4.500000e+02 9.296089e+01 1.070772e+01
      vertex   3.721998e+02 8.908545e+01 1.000000e+01
    endloop
  endfacet
  facet normal -4.159414e-02 7.058802e-01 7.071089e-01
    outer loop
      vertex   3.721998e+02 8.908545e+01 1.000000e+01
      vertex   4.500000e+02 9.296089e+01 1.070772e+01
      vertex   4.500000e+02 9.366985e+01 1.000000e+01
    endloop
  endfacet
  facet normal -4.166642e-02 7.071068e-01 -7.058781e-01
    outer loop
      vertex   3.713404e+02 8.832586e+01 1.070772e+01
      vertex   3.905387e+02 9.174542e+01 1.300000e+01
      vertex   4.500000e+02 9.296089e+01 1.070772e+01
    endloop
  endfacet
  facet normal -4.166642e-02 7.071068e-01 -7.058781e-01
    outer loop
      vertex   4.500000e+02 9.296089e+01 1.070772e+01
      vertex   3.905387e+02 9.174542e+01 1.300000e+01
      vertex   4.146101e+02 9.316383e+01 1.300000e+01
    endloop
  endfacet
  facet normal -4.166642e-02 7.071068e-01 -7.058781e-01
    outer loop
      vertex   4.500000e+02 9.296089e+01 1.070772e+01
      vertex   4.146101e+02 9.316383e+01 1.300000e+01
      vertex   4.500000e+02 9.524919e+01 1.300000e+01
    endloop
  endfacet
  facet normal -4.166642e-02 7.071068e-01 -7.058781e-01
    outer loop
      vertex   3.713404e+02 8.832586e+01 1.070772e+01
      vertex   3.704151e+02 9.055963e+01 1.300000e+01
      vertex   3.905387e+02 9.174542e+01 1.300000e+01
    endloop
  endfacet
  facet normal -7.071068e-01 -7.071068e-01 -1.112754e-13
    outer loop
      vertex   3.714465e+02 3.991708e+01 1.070772e+01
      vertex   3.713696e+02 3.999392e+01 1.063528e+01
      vertex   3.721998e+02 3.916373e+01 1.000000e+01
    endloop
  endfacet
  facet normal -7.071068e-01 -7.071068e-01 1.982420e-14
    outer loop
      vertex   3.721998e+02 3.916373e+01 1.000000e+01
      vertex   3.713696e+02 3.999392e+01 1.063528e+01
      vertex   3.606704e+02 5.069314e+01 1.126683e+01
    endloop
  endfacet
  facet normal -7.071068e-01 -7.071068e-01 0.000000e+00
    outer loop
      vertex   3.721998e+02 3.916373e+01 1.000000e+01
      vertex   3.606704e+02 5.069314e+01 1.126683e+01
      vertex   3.606704e+02 5.069314e+01 1.000000e+01
    endloop
  endfacet
  facet normal -4.166642e-02 -7.071068e-01 -7.058781e-01
    outer loop
      vertex   3.713696e+02 3.999392e+01 1.063528e+01
      vertex   3.714465e+02 3.991708e+01 1.070772e+01
      vertex   3.704151e+02 3.768956e+01 1.300000e+01
    endloop
  endfacet
  facet normal -4.166642e-02 -7.071068e-01 -7.058781e-01
    outer loop
      vertex   3.704151e+02 3.768956e+01 1.300000e+01
      vertex   3.714465e+02 3.991708e+01 1.070772e+01
      vertex   3.835128e+02 3.691777e+01 1.300000e+01
    endloop
  endfacet
  facet normal -4.166642e-02 -7.071068e-01 -7.058781e-01
    outer loop
      vertex   3.835128e+02 3.691777e+01 1.300000e+01
      vertex   3.714465e+02 3.991708e+01 1.070772e+01
      vertex   3.959740e+02 3.618350e+01 1.300000e+01
    endloop
  endfacet
  facet normal -4.166642e-02 -7.071068e-01 -7.058781e-01
    outer loop
      vertex   3.959740e+02 3.618350e+01 1.300000e+01
      vertex   3.714465e+02 3.991708e+01 1.070772e+01
      vertex   4.500000e+02 3.528830e+01 1.070772e+01
    endloop
  endfacet
  facet normal -4.166642e-02 -7.071068e-01 -7.058781e-01
    outer loop
      vertex   3.959740e+02 3.618350e+01 1.300000e+01
      vertex   4.500000e+02 3.528830e+01 1.070772e+01
      vertex   4.099169e+02 3.536190e+01 1.300000e+01
    endloop
  endfacet
  facet normal -4.166642e-02 -7.071068e-01 -7.058781e-01
    outer loop
      vertex   4.099169e+02 3.536190e+01 1.300000e+01
      vertex   4.500000e+02 3.528830e+01 1.070772e+01
      vertex   4.279552e+02 3.429899e+01 1.300000e+01
    endloop
  endfacet
  facet normal -4.166642e-02 -7.071068e-01 -7.058781e-01
    outer loop
      vertex   4.279552e+02 3.429899e+01 1.300000e+01
      vertex   4.500000e+02 3.528830e+01 1.070772e+01
      vertex   4.363210e+02 3.380604e+01 1.300000e+01
    endloop
  endfacet
  facet normal -4.166642e-02 -7.071068e-01 -7.058781e-01
    outer loop
      vertex   4.363210e+02 3.380604e+01 1.300000e+01
      vertex   4.500000e+02 3.528830e+01 1.070772e+01
      vertex   4.500000e+02 3.300000e+01 1.300000e+01
    endloop
  endfacet
  facet normal -4.159414e-02 -7.058802e-01 7.071089e-01
    outer loop
      vertex   3.714465e+02 3.991708e+01 1.070772e+01
      vertex   3.721998e+02 3.916373e+01 1.000000e+01
      vertex   4.500000e+02 3.528830e+01 1.070772e+01
    endloop
  endfacet
  facet normal -4.159414e-02 -7.058802e-01 7.071089e-01
    outer loop
      vertex   4.500000e+02 3.528830e+01 1.070772e+01
      vertex   3.721998e+02 3.916373e+01 1.000000e+01
      vertex   4.500000e+02 3.457934e+01 1.000000e+01
    endloop
  endfacet
  facet normal -1.000000e+00 -2.114701e-15 -2.985442e-15
    outer loop
      vertex   3.606704e+02 5.068453e+01 1.127293e+01
      vertex   3.606704e+02 7.756466e+01 1.127293e+01
      vertex   3.606704e+02 5.069314e+01 1.126683e+01
    endloop
  endfacet
  facet normal -1.000000e+00 -2.116055e-15 2.987355e-15
    outer loop
      vertex   3.606704e+02 5.069314e+01 1.126683e+01
      vertex   3.606704e+02 7.756466e+01 1.127293e+01
      vertex   3.606704e+02 7.755605e+01 1.126683e+01
    endloop
  endfacet
  facet normal -1.000000e+00 -2.116055e-15 -0.000000e+00
    outer loop
      vertex   3.606704e+02 5.069314e+01 1.126683e+01
      vertex   3.606704e+02 7.755605e+01 1.126683e+01
      vertex   3.606704e+02 5.069314e+01 1.000000e+01
    endloop
  endfacet
  facet normal -1.000000e+00 -2.116055e-15 0.000000e+00
    outer loop
      vertex   3.606704e+02 5.069314e+01 1.000000e+01
      vertex   3.606704e+02 7.755605e+01 1.126683e+01
      vertex   3.606704e+02 7.755605e+01 1.000000e+01
    endloop
  endfacet
  facet normal -5.307226e-01 -4.898980e-01 -6.916166e-01
    outer loop
      vertex   3.590423e+02 5.001014e+01 1.300000e+01
      vertex   3.606704e+02 5.068453e+01 1.127293e+01
      vertex   3.605051e+02 4.842543e+01 1.300000e+01
    endloop
  endfacet
  facet normal -5.307226e-01 -4.898980e-01 -6.916166e-01
    outer loop
      vertex   3.605051e+02 4.842543e+01 1.300000e+01
      vertex   3.606704e+02 5.068453e+01 1.127293e+01
      vertex   3.623729e+02 4.640196e+01 1.300000e+01
    endloop
  endfacet
  facet normal -5.307226e-01 -4.898980e-01 -6.916166e-01
    outer loop
      vertex   3.623729e+02 4.640196e+01 1.300000e+01
      vertex   3.606704e+02 5.068453e+01 1.127293e+01
      vertex   3.606704e+02 5.069314e+01 1.126683e+01
    endloop
  endfacet
  facet normal -5.307226e-01 -4.898980e-01 -6.916166e-01
    outer loop
      vertex   3.623729e+02 4.640196e+01 1.300000e+01
      vertex   3.606704e+02 5.069314e+01 1.126683e+01
      vertex   3.644628e+02 4.413786e+01 1.300000e+01
    endloop
  endfacet
  facet normal -5.307226e-01 -4.898980e-01 -6.916166e-01
    outer loop
      vertex   3.644628e+02 4.413786e+01 1.300000e+01
      vertex   3.606704e+02 5.069314e+01 1.126683e+01
      vertex   3.713696e+02 3.999392e+01 1.063528e+01
    endloop
  endfacet
  facet normal -5.307226e-01 -4.898980e-01 -6.916166e-01
    outer loop
      vertex   3.644628e+02 4.413786e+01 1.300000e+01
      vertex   3.713696e+02 3.999392e+01 1.063528e+01
      vertex   3.663307e+02 4.211439e+01 1.300000e+01
    endloop
  endfacet
  facet normal -5.307226e-01 -4.898980e-01 -6.916166e-01
    outer loop
      vertex   3.663307e+02 4.211439e+01 1.300000e+01
      vertex   3.713696e+02 3.999392e+01 1.063528e+01
      vertex   3.684206e+02 3.985029e+01 1.300000e+01
    endloop
  endfacet
  facet normal -5.307226e-01 -4.898980e-01 -6.916166e-01
    outer loop
      vertex   3.684206e+02 3.985029e+01 1.300000e+01
      vertex   3.713696e+02 3.999392e+01 1.063528e+01
      vertex   3.702884e+02 3.782681e+01 1.300000e+01
    endloop
  endfacet
  facet normal -5.307226e-01 -4.898980e-01 -6.916166e-01
    outer loop
      vertex   3.702884e+02 3.782681e+01 1.300000e+01
      vertex   3.713696e+02 3.999392e+01 1.063528e+01
      vertex   3.704151e+02 3.768956e+01 1.300000e+01
    endloop
  endfacet
  facet normal -5.307226e-01 -4.898980e-01 -6.916166e-01
    outer loop
      vertex   3.702884e+02 3.782681e+01 1.300000e+01
      vertex   3.704151e+02 3.768956e+01 1.300000e+01
      vertex   3.702476e+02 3.769942e+01 1.312153e+01
    endloop
  endfacet
  facet normal -7.276418e-01 6.896121e-14 -6.859573e-01
    outer loop
      vertex   3.590423e+02 7.823905e+01 1.300000e+01
      vertex   3.606704e+02 7.756466e+01 1.127293e+01
      vertex   3.590423e+02 7.686279e+01 1.300000e+01
    endloop
  endfacet
  facet normal -7.276418e-01 -6.054331e-14 -6.859573e-01
    outer loop
      vertex   3.590423e+02 7.686279e+01 1.300000e+01
      vertex   3.606704e+02 7.756466e+01 1.127293e+01
      vertex   3.590423e+02 7.461201e+01 1.300000e+01
    endloop
  endfacet
  facet normal -7.276418e-01 2.126181e-14 -6.859573e-01
    outer loop
      vertex   3.590423e+02 7.461201e+01 1.300000e+01
      vertex   3.606704e+02 7.756466e+01 1.127293e+01
      vertex   3.590423e+02 7.209356e+01 1.300000e+01
    endloop
  endfacet
  facet normal -7.276418e-01 -2.379023e-14 -6.859573e-01
    outer loop
      vertex   3.590423e+02 7.209356e+01 1.300000e+01
      vertex   3.606704e+02 7.756466e+01 1.127293e+01
      vertex   3.590423e+02 6.984278e+01 1.300000e+01
    endloop
  endfacet
  facet normal -7.276418e-01 2.126181e-14 -6.859573e-01
    outer loop
      vertex   3.590423e+02 6.984278e+01 1.300000e+01
      vertex   3.606704e+02 7.756466e+01 1.127293e+01
      vertex   3.590423e+02 6.732433e+01 1.300000e+01
    endloop
  endfacet
  facet normal -7.276418e-01 -4.216677e-14 -6.859573e-01
    outer loop
      vertex   3.590423e+02 6.732433e+01 1.300000e+01
      vertex   3.606704e+02 7.756466e+01 1.127293e+01
      vertex   3.590423e+02 6.507355e+01 1.300000e+01
    endloop
  endfacet
  facet normal -7.276418e-01 -1.538290e-15 -6.859573e-01
    outer loop
      vertex   3.590423e+02 6.507355e+01 1.300000e+01
      vertex   3.606704e+02 7.756466e+01 1.127293e+01
      vertex   3.606704e+02 5.068453e+01 1.127293e+01
    endloop
  endfacet
  facet normal -7.276418e-01 3.768529e-14 -6.859573e-01
    outer loop
      vertex   3.590423e+02 6.507355e+01 1.300000e+01
      vertex   3.606704e+02 5.068453e+01 1.127293e+01
      vertex   3.590423e+02 6.255510e+01 1.300000e+01
    endloop
  endfacet
  facet normal -7.276418e-01 -4.216677e-14 -6.859573e-01
    outer loop
      vertex   3.590423e+02 6.255510e+01 1.300000e+01
      vertex   3.606704e+02 5.068453e+01 1.127293e+01
      vertex   3.590423e+02 6.030432e+01 1.300000e+01
    endloop
  endfacet
  facet normal -7.276418e-01 2.126181e-14 -6.859573e-01
    outer loop
      vertex   3.590423e+02 6.030432e+01 1.300000e+01
      vertex   3.606704e+02 5.068453e+01 1.127293e+01
      vertex   3.590423e+02 5.778587e+01 1.300000e+01
    endloop
  endfacet
  facet normal -7.276418e-01 -2.379023e-14 -6.859573e-01
    outer loop
      vertex   3.590423e+02 5.778587e+01 1.300000e+01
      vertex   3.606704e+02 5.068453e+01 1.127293e+01
      vertex   3.590423e+02 5.553509e+01 1.300000e+01
    endloop
  endfacet
  facet normal -7.276418e-01 2.126181e-14 -6.859573e-01
    outer loop
      vertex   3.590423e+02 5.553509e+01 1.300000e+01
      vertex   3.606704e+02 5.068453e+01 1.127293e+01
      vertex   3.590423e+02 5.301664e+01 1.300000e+01
    endloop
  endfacet
  facet normal -7.276418e-01 -6.054331e-14 -6.859573e-01
    outer loop
      vertex   3.590423e+02 5.301664e+01 1.300000e+01
      vertex   3.606704e+02 5.068453e+01 1.127293e+01
      vertex   3.590423e+02 5.076586e+01 1.300000e+01
    endloop
  endfacet
  facet normal -7.276418e-01 1.641947e-13 -6.859573e-01
    outer loop
      vertex   3.590423e+02 5.076586e+01 1.300000e+01
      vertex   3.606704e+02 5.068453e+01 1.127293e+01
      vertex   3.590423e+02 5.001014e+01 1.300000e+01
    endloop
  endfacet
  facet normal -7.276418e-01 1.641947e-13 -6.859573e-01
    outer loop
      vertex   3.590423e+02 5.076586e+01 1.300000e+01
      vertex   3.590423e+02 5.001014e+01 1.300000e+01
      vertex   3.587099e+02 5.037022e+01 1.335258e+01
    endloop
  endfacet
endsolid
